<?xml version="1.0" encoding="UTF-8"?>
<svg xmlns="http://www.w3.org/2000/svg" version="1.1" viewBox="0 0 512 512">
  <defs>
    <style>
      .cls-1 {
        fill: #fff;
      }

      .cls-2 {
        fill: #15775c;
        fill-rule: evenodd;
      }
    </style>
  </defs>
  <!-- Generator: Adobe Illustrator 28.6.0, SVG Export Plug-In . SVG Version: 1.2.0 Build 709)  -->
  <g>
    <g id="Layer_2">
      <rect class="cls-1" x="190.13" y="190.54" width="134.97" height="134.56"/>
    </g>
    <g id="Layer_1">
      <g>
        <path class="cls-2" d="M265.53,262.6l5.8.24c10.99.46,20.74-6.82,23.39-17.59,2.94-11.92-4.15-24.22-15.93-27.68-13.64-4.01-28.03,5.18-29.54,19.99-.11,1.05-.11,2.11-.07,3.17l.23,5.74c.07,1.65-1.29,3-2.94,2.94l-5.8-.24c-10.99-.46-20.74,6.82-23.39,17.59-2.94,11.92,4.15,24.22,15.93,27.68,13.64,4.01,28.03-5.18,29.55-19.99.11-1.05.11-2.11.07-3.17l-.23-5.75c-.07-1.65,1.29-3,2.94-2.94Z"/>
        <path class="cls-2" d="M452.4,308.93c-18.04-10.45-39.73-8.6-55.52,2.95-10.9-1-23.34-4.25-40.08-19.59,4.15-11.44,6.45-23.79,6.45-36.73,0-11.69-1.9-22.99-5.4-33.58,6.4-8.6,16.34-17.04,39.63-22.84,15.59,10.24,36.28,11.5,53.52,1.55,24.39-14.09,32.73-45.28,18.64-69.66-14.04-24.39-45.23-32.73-69.62-18.64-18.04,10.4-27.29,30.14-25.19,49.58-6.25,8.84-15.24,17.94-36.63,24.79-15.29-18.29-36.58-31.39-60.87-36.28-4.2-9.79-6.4-22.59.15-45.42,16.69-8.4,28.09-25.64,28.09-45.58,0-28.14-22.79-50.98-50.98-50.98s-50.97,22.84-50.97,50.98c0,20.79,12.49,38.68,30.33,46.63,4.55,9.79,7.95,22.14,3.25,43.93-24.44,4.3-46.03,16.89-61.72,34.78-10.64-1.25-22.89-5.7-39.48-22.89,1.05-18.64-8.15-37.18-25.44-47.13-24.34-14.09-55.52-5.75-69.62,18.64-14.09,24.39-5.75,55.57,18.64,69.67,18.04,10.4,39.78,8.55,55.57-2.95,10.8.95,23.19,4.2,39.83,19.34-4.05,11.29-6.25,23.44-6.25,36.08s2,23.49,5.6,34.18c-6.4,8.69-16.34,17.29-39.83,23.14-15.59-10.25-36.28-11.55-53.53-1.55-24.39,14.04-32.73,45.23-18.64,69.62,14.04,24.39,45.23,32.74,69.62,18.69,18.04-10.45,27.29-30.14,25.24-49.58,6.3-8.95,15.39-18.14,37.13-24.99,15.19,17.84,36.13,30.64,59.92,35.53,4.45,9.9,7,22.84.25,46.38-16.64,8.35-28.09,25.64-28.09,45.53,0,28.19,22.79,51.02,50.97,51.02s50.98-22.84,50.98-51.02c0-20.79-12.44-38.68-30.33-46.58-4.6-9.95-8-22.44-3-44.78,23.99-4.3,45.23-16.59,60.82-34.03,10.79,1.15,23.19,5.4,40.13,22.99-1.05,18.59,8.15,37.13,25.44,47.08,24.39,14.09,55.57,5.75,69.61-18.64,14.09-24.39,5.75-55.57-18.64-69.61ZM278.66,278.69c-.24,1.48-.57,2.94-.98,4.38-7.06,24.77-36.42,37.27-60.1,21.94-11.15-7.22-17.79-19.85-17.39-33.13.62-20.23,14.75-35.63,33.16-38.58.24-1.48.57-2.94.98-4.38,7.06-24.77,36.42-37.27,60.1-21.94,11.15,7.22,17.79,19.84,17.39,33.13-.62,20.23-14.75,35.63-33.16,38.58Z"/>
      </g>
    </g>
  </g>
</svg>