<?xml version="1.0" encoding="UTF-8"?>
<svg xmlns="http://www.w3.org/2000/svg" version="1.1" viewBox="0 0 220 50">
  <defs>
    <style>
      .cls-1 {
        fill: #2d2d2d;
      }

      .cls-2, .cls-3, .cls-4 {
        fill: #fff;
      }

      .cls-3 {
        fill-rule: evenodd;
      }

      .cls-4, .cls-5 {
        display: none;
      }
    </style>
  </defs>
  <!-- Generator: Adobe Illustrator 28.6.0, SVG Export Plug-In . SVG Version: 1.2.0 Build 709)  -->
  <g>
    <g id="Layer_2" class="cls-5">
      <rect class="cls-1" x="-7.97" y="-8.05" width="233.85" height="73.03"/>
    </g>
    <g id="Layer_3">
      <rect class="cls-4" x="15.39" y="18.69" width="14.21" height="12.61"/>
    </g>
    <g id="Layer_1">
      <g>
        <path class="cls-3" d="M23.36,25.58l.51.02c.97.04,1.84-.6,2.07-1.56.26-1.06-.37-2.15-1.41-2.45-1.21-.36-2.48.46-2.62,1.77,0,.09-.01.19,0,.28l.02.51c0,.15-.11.27-.26.26l-.51-.02c-.97-.04-1.84.6-2.07,1.56-.26,1.06.37,2.15,1.41,2.45,1.21.36,2.48-.46,2.62-1.77,0-.09.01-.19,0-.28l-.02-.51c0-.15.11-.27.26-.26Z"/>
        <path class="cls-3" d="M39.92,29.69c-1.6-.93-3.52-.76-4.92.26-.97-.09-2.07-.38-3.55-1.74.37-1.01.57-2.11.57-3.25,0-1.04-.17-2.04-.48-2.98.57-.76,1.45-1.51,3.51-2.02,1.38.91,3.21,1.02,4.74.14,2.16-1.25,2.9-4.01,1.65-6.17-1.24-2.16-4.01-2.9-6.17-1.65-1.6.92-2.42,2.67-2.23,4.39-.55.78-1.35,1.59-3.25,2.2-1.35-1.62-3.24-2.78-5.39-3.21-.37-.87-.57-2,.01-4.02,1.48-.74,2.49-2.27,2.49-4.04,0-2.49-2.02-4.52-4.52-4.52s-4.52,2.02-4.52,4.52c0,1.84,1.11,3.43,2.69,4.13.4.87.7,1.96.29,3.89-2.17.38-4.08,1.5-5.47,3.08-.94-.11-2.03-.5-3.5-2.03.09-1.65-.72-3.29-2.25-4.18-2.16-1.25-4.92-.51-6.17,1.65-1.25,2.16-.51,4.92,1.65,6.17,1.6.92,3.52.76,4.92-.26.96.08,2.05.37,3.53,1.71-.36,1-.55,2.08-.55,3.2s.18,2.08.5,3.03c-.57.77-1.45,1.53-3.53,2.05-1.38-.91-3.21-1.02-4.74-.14-2.16,1.24-2.9,4.01-1.65,6.17,1.24,2.16,4.01,2.9,6.17,1.66,1.6-.93,2.42-2.67,2.24-4.39.56-.79,1.36-1.61,3.29-2.21,1.35,1.58,3.2,2.71,5.31,3.15.39.88.62,2.02.02,4.11-1.47.74-2.49,2.27-2.49,4.03,0,2.5,2.02,4.52,4.52,4.52s4.52-2.02,4.52-4.52c0-1.84-1.1-3.43-2.69-4.13-.41-.88-.71-1.99-.27-3.97,2.13-.38,4.01-1.47,5.39-3.02.96.1,2.05.48,3.56,2.04-.09,1.65.72,3.29,2.25,4.17,2.16,1.25,4.92.51,6.17-1.65,1.25-2.16.51-4.92-1.65-6.17ZM24.53,27.01c-.02.13-.05.26-.09.39-.63,2.19-3.23,3.3-5.32,1.94-.99-.64-1.58-1.76-1.54-2.94.05-1.79,1.31-3.16,2.94-3.42.02-.13.05-.26.09-.39.63-2.19,3.23-3.3,5.32-1.94.99.64,1.58,1.76,1.54,2.94-.05,1.79-1.31,3.16-2.94,3.42Z"/>
      </g>
    </g>
    <g id="Layer_4">
      <g>
        <path class="cls-2" d="M48.37,43.51L62.47,5.86h7.04l14,37.65h-6.85l-3.23-9.08h-15.1l-3.12,9.08h-6.83ZM59.95,29.28h11.79l-5.23-14.97c-.12-.39-.23-.77-.31-1.17-.09-.39-.18-.88-.26-1.46h-.16c-.09.53-.18.99-.28,1.39-.1.4-.21.8-.35,1.18l-5.2,15.02Z"/>
        <path class="cls-2" d="M110.75,31.67h-18.35c.1,2.54.84,4.47,2.21,5.79,1.37,1.32,3.27,1.98,5.72,1.98,1,0,2.14-.2,3.41-.6,1.28-.4,2.54-1.05,3.78-1.94l2.76,3.81c-1.66,1.21-3.35,2.08-5.07,2.63-1.72.54-3.61.81-5.67.81-4.18,0-7.44-1.2-9.77-3.61-2.33-2.41-3.5-5.77-3.52-10.1,0-4.31,1.2-7.79,3.61-10.45,2.41-2.66,5.49-3.99,9.26-3.99s6.45,1.13,8.52,3.4c2.07,2.27,3.11,5.47,3.11,9.62v2.65ZM104.85,27.44c0-2.31-.5-4.05-1.51-5.21-1.01-1.16-2.43-1.75-4.27-1.75-1.73,0-3.21.63-4.42,1.88-1.22,1.25-1.97,2.95-2.25,5.08h12.45Z"/>
        <path class="cls-2" d="M139.06,16.62l-8.95,13.34,8.85,13.55h-7.06l-4.65-8.06c-.17-.28-.36-.6-.55-.97-.19-.37-.4-.78-.63-1.23h-.11c-.09.19-.22.47-.41.84-.18.37-.43.81-.75,1.34l-4.73,8.09h-7.01l9.14-13.29-8.67-13.6h7.09l4.57,8.45c.23.42.43.82.6,1.19.17.38.34.74.5,1.09h.11c.17-.38.37-.77.58-1.15.21-.38.42-.77.63-1.16l4.75-8.43h6.7Z"/>
        <path class="cls-2" d="M166.97,43.51h-6.12v-4.17h-.1c-.95,1.59-2.11,2.79-3.49,3.6-1.38.81-2.98,1.21-4.78,1.21-3.15,0-5.52-.95-7.1-2.84-1.58-1.89-2.38-4.73-2.38-8.53v-16.15h6.07v15.44c0,2.4.47,4.2,1.4,5.41s2.34,1.81,4.21,1.81,3.3-.66,4.45-1.97c1.15-1.31,1.72-3.06,1.72-5.25v-15.44h6.12v26.89Z"/>
        <path class="cls-2" d="M215.13,43.51h-6.09v-15.39c0-2.52-.42-4.36-1.25-5.53-.83-1.16-2.17-1.75-4-1.75-1.63,0-2.99.72-4.08,2.17-1.09,1.44-1.64,3.21-1.64,5.29v15.2h-6.09v-15.75c0-2.31-.44-4.04-1.33-5.19-.88-1.15-2.2-1.72-3.95-1.72s-3.05.69-4.1,2.06c-1.05,1.37-1.58,3.19-1.58,5.45v15.15h-6.12v-26.89h6.12v4.23h.11c.91-1.54,2.1-2.73,3.56-3.58,1.46-.85,3.11-1.27,4.95-1.27s3.45.46,4.79,1.39c1.34.93,2.31,2.23,2.9,3.91,1.02-1.77,2.27-3.09,3.75-3.98,1.49-.88,3.23-1.33,5.23-1.33,2.94,0,5.15.91,6.62,2.72,1.47,1.81,2.21,4.53,2.21,8.15v16.65Z"/>
      </g>
    </g>
  </g>
</svg>